<svg width="88" height="89" viewBox="0 0 88 89" fill="none" xmlns="http://www.w3.org/2000/svg">
<path d="M39.9307 77.6102V69.0654H31.127V60.5206H39.9307V51.5486C34.1349 50.5517 29.3838 47.863 25.6775 43.4823C21.9711 39.1017 20.1194 34.029 20.1223 28.2641C20.1223 21.7843 22.489 16.2843 27.2225 11.7641C31.956 7.24392 37.6593 4.9824 44.3325 4.97955C51.0087 4.97955 56.7135 7.24107 61.4469 11.7641C66.1804 16.2871 68.5457 21.7871 68.5427 28.2641C68.5427 34.0318 66.6895 39.106 62.9832 43.4866C59.2768 47.8672 54.5272 50.5546 48.7344 51.5486V60.5206H57.5381V69.0654H48.7344V77.6102H39.9307ZM44.3325 43.4311C48.5877 43.4311 52.2192 41.9713 55.2271 39.0519C58.2351 36.1324 59.739 32.6077 59.739 28.4777C59.739 24.3477 58.2351 20.823 55.2271 17.9035C52.2192 14.9841 48.5877 13.5243 44.3325 13.5243C40.0774 13.5243 36.4459 14.9841 33.4379 17.9035C30.43 20.823 28.926 24.3477 28.926 28.4777C28.926 32.6077 30.43 36.1324 33.4379 39.0519C36.4459 41.9713 40.0774 43.4311 44.3325 43.4311Z" fill="black"/>
</svg>
