<svg width="69" height="107" viewBox="0 0 69 107" fill="none" xmlns="http://www.w3.org/2000/svg">
<path d="M28.25 106.25V93.75H15.75V81.25H28.25V68.125C20.0208 66.6667 13.275 62.7333 8.01251 56.325C2.75001 49.9167 0.120838 42.4958 0.125005 34.0625C0.125005 24.5833 3.48542 16.5375 10.2063 9.925C16.9271 3.3125 25.025 0.00416667 34.5 0C43.9792 0 52.0792 3.30833 58.8 9.925C65.5208 16.5417 68.8792 24.5875 68.875 34.0625C68.875 42.5 66.2438 49.9229 60.9813 56.3312C55.7188 62.7396 48.975 66.6708 40.75 68.125V81.25H53.25V93.75H40.75V106.25H28.25ZM34.5 56.25C40.5417 56.25 45.6979 54.1146 49.9688 49.8438C54.2396 45.5729 56.375 40.4167 56.375 34.375C56.375 28.3333 54.2396 23.1771 49.9688 18.9062C45.6979 14.6354 40.5417 12.5 34.5 12.5C28.4583 12.5 23.3021 14.6354 19.0313 18.9062C14.7604 23.1771 12.625 28.3333 12.625 34.375C12.625 40.4167 14.7604 45.5729 19.0313 49.8438C23.3021 54.1146 28.4583 56.25 34.5 56.25Z" fill="black"/>
</svg>
