<svg width="88" height="89" viewBox="0 0 88 89" fill="none" xmlns="http://www.w3.org/2000/svg">
<path d="M77.1432 45.2879V44.5379C77.1432 44.1836 77.1432 43.8269 77.1237 43.4507C77.1237 43.2675 77.1066 43.0794 77.0968 42.8913C77.0299 41.4682 76.8419 40.0535 76.5349 38.6624C76.4812 38.4181 76.4323 38.1738 76.3688 37.9295C76.2759 37.5777 76.1611 37.2308 76.0463 36.8814C75.9315 36.5321 75.802 36.1925 75.6725 35.848C75.5538 35.551 75.4259 35.2577 75.289 34.9685C75.223 34.8293 75.1766 34.6851 75.1057 34.5483V32.7552C75.0862 31.045 75.1057 26.3838 75.1057 22.641V18.7078C75.0353 15.9308 73.8871 13.2903 71.904 11.3451C69.921 9.39988 67.2588 8.30271 64.481 8.28583C62.7208 8.20342 60.9665 8.54439 59.3653 9.28014H59.3458C59.093 9.40577 58.8482 9.54692 58.6129 9.70279C58.4932 9.78341 58.3686 9.87869 58.2635 9.96663C57.8107 10.3098 57.4007 10.706 57.042 11.1466C57.0005 11.1979 56.9565 11.2321 56.9174 11.2834C56.8197 11.1881 56.6927 11.11 56.5925 11.0196C56.2639 10.7179 55.9181 10.4357 55.5567 10.1743C55.3661 10.0399 55.1633 9.91533 54.963 9.79074C54.5924 9.5592 54.2082 9.35034 53.8123 9.16532C53.5824 9.05354 53.3485 8.95006 53.1112 8.85506C52.6519 8.68405 52.1828 8.53747 51.7064 8.4202C51.4621 8.36157 51.2496 8.28828 51.0053 8.2443C50.2249 8.08824 49.4314 8.00645 48.6356 8C48.0737 8.03176 47.5142 8.10749 46.9645 8.22232C46.7569 8.2614 46.5517 8.31759 46.344 8.37134C45.6236 8.56291 44.9245 8.8273 44.2577 9.16044C43.7317 9.41787 43.229 9.72031 42.7552 10.0644C42.3945 10.3332 42.0517 10.6253 41.7291 10.939C41.6119 11.0513 41.4848 11.1417 41.3725 11.2614C40.9805 11.6777 40.6234 12.1255 40.3049 12.6002C40.2535 12.5685 40.1876 12.544 40.1338 12.5123C39.8895 12.3632 39.6037 12.2289 39.3203 12.0921C39.1395 12.0066 38.9661 11.9162 38.7731 11.8478C38.454 11.7163 38.1277 11.6029 37.7959 11.5082C37.5931 11.4447 37.4025 11.3714 37.19 11.3152C36.8089 11.215 36.3936 11.1442 35.9685 11.0709C35.7682 11.0391 35.5849 10.9903 35.3748 10.9634C34.7039 10.8785 34.0283 10.8361 33.352 10.8364H33.3398C32.8281 10.8658 32.3193 10.9336 31.8178 11.0391C31.6077 11.0807 31.4025 11.1368 31.1948 11.1906C30.9872 11.2443 30.7355 11.3323 30.4937 11.4153C30.0438 11.5716 29.6061 11.7611 29.1842 11.9821C28.995 12.0773 28.8092 12.1792 28.6272 12.2875C28.3639 12.4483 28.1087 12.6219 27.8625 12.8079C27.6133 12.996 27.4179 13.1792 27.1956 13.3795C26.9733 13.5799 26.7925 13.724 26.6068 13.9292C26.2349 14.3323 25.8989 14.7672 25.6027 15.2289C25.505 15.1898 25.378 15.1898 25.268 15.1532C24.8331 15.0246 24.391 14.9218 23.9439 14.8454C23.7338 14.8063 23.531 14.7598 23.3136 14.7305C22.6011 14.6336 21.8829 14.5838 21.1638 14.5815H21.1442C19.7552 14.6324 18.3899 14.9577 17.1272 15.5389C15.8646 16.12 14.7294 16.9454 13.7874 17.9674C12.8453 18.9894 12.1149 20.1879 11.6383 21.4936C11.1617 22.7993 10.9483 24.1865 11.0106 25.5751V33.3244C11.013 33.8448 11.0594 34.3627 11.1425 34.8757V35.3643C11.0741 47.1275 10.9788 63.2417 20.6971 73.0186C25.9741 78.3127 33.5255 81 43.151 81C66.5503 81 75.9852 63.6838 76.9722 48.8058C77.0455 48.3417 77.0821 47.8677 77.0846 47.3962L77.131 46.0941C77.1383 45.8351 77.1408 45.5664 77.1432 45.2879ZM70.2148 18.7029V29.1566C66.9908 27.2935 63.3178 26.3497 59.595 26.4277C59.5583 24.5979 59.5266 22.4554 59.5266 20.3373C59.5192 19.3356 59.5803 18.334 59.7122 17.3421L59.8002 16.8682C59.9126 16.1719 60.1251 15.4952 60.428 14.8576C60.472 14.7745 60.5209 14.7037 60.5673 14.6279C60.8546 14.1343 61.2907 13.7444 61.8132 13.5139C61.9281 13.4602 62.0478 13.4162 62.1699 13.3771C62.3486 13.3243 62.5306 13.2835 62.7147 13.2549L62.832 13.2378C63.3768 13.1792 63.9265 13.1523 64.4761 13.1621C65.9581 13.1821 67.3767 13.7664 68.4429 14.7958C69.5092 15.8253 70.1428 17.2225 70.2148 18.7029ZM28.4928 32.1126V23.159C28.4653 21.8818 28.6418 20.6085 29.0156 19.3869V19.3503C29.15 18.9521 29.3235 18.5661 29.5311 18.1996C29.6117 18.0628 29.6972 17.9309 29.7925 17.8014C29.997 17.4938 30.2355 17.2103 30.5034 16.9561C30.6256 16.8389 30.6867 16.7998 30.7795 16.7265C31.2192 16.382 31.7127 16.1157 32.2453 15.9496C32.3479 15.9178 32.453 15.8836 32.5556 15.8617C32.6582 15.8397 32.7657 15.8128 32.8658 15.7957C33.0588 15.759 33.2543 15.7371 33.4497 15.7248C35.2576 15.6051 37.041 16.1719 38.4506 17.3104C38.1647 18.6342 38.019 19.9845 38.0157 21.3389V31.199C38.0231 32.2812 38.1061 33.3635 38.2649 34.436C38.3138 35.5646 37.9473 36.6713 37.2389 37.5508C36.1794 38.3994 34.8298 38.7993 33.479 38.6648C31.9636 38.4259 30.599 37.611 29.6699 36.3902C28.7409 35.1694 28.3192 33.6369 28.4928 32.1126ZM42.9287 31.4262V21.3389C42.9043 19.9446 43.0972 18.555 43.5003 17.22C43.5663 17.0196 43.642 16.8437 43.7178 16.663C43.898 16.1896 44.1325 15.7387 44.4165 15.3193C44.5337 15.1507 44.6608 15.0041 44.7731 14.8576C44.91 14.6866 45.0565 14.5229 45.2104 14.369C45.274 14.3079 45.3424 14.2639 45.4083 14.2077C45.7577 13.9097 46.1461 13.658 46.559 13.4602C46.6323 13.426 46.708 13.3795 46.7813 13.3502C46.9572 13.2769 47.1282 13.2207 47.2968 13.167C47.4263 13.1303 47.5557 13.0913 47.6803 13.0619C47.8049 13.0326 47.9246 13.0033 48.0541 12.9813C48.2984 12.9422 48.5427 12.9105 48.7577 12.8983C49.2708 12.8983 49.7838 12.9471 50.2895 13.0497C50.9687 13.1914 51.6185 13.4455 52.2146 13.8022C52.3465 13.8804 52.5004 13.9439 52.6226 14.0269C53.5949 14.7061 54.3742 15.6271 54.8775 16.7021C54.7065 17.9089 54.6259 19.1255 54.6332 20.3422C54.6332 22.5164 54.665 24.7127 54.7016 26.5841C48.9336 27.0776 45.0614 28.6729 42.9287 31.4262ZM15.8966 25.5727C15.8378 24.8191 15.9302 24.0613 16.1683 23.3439C16.4064 22.6264 16.7855 21.9638 17.2832 21.3949C17.7809 20.8259 18.3872 20.3622 19.0666 20.0308C19.746 19.6994 20.4848 19.5071 21.2395 19.4651C21.954 19.4609 22.6668 19.5355 23.3649 19.6874C23.4092 19.6839 23.4537 19.6915 23.4944 19.7094C23.6483 19.7461 23.7534 19.8242 23.8975 19.8707C23.7021 20.9554 23.6043 22.0572 23.6068 23.159V32.1126C23.598 34.1063 24.0662 36.0731 24.9724 37.8489C23.8204 38.4411 22.5336 38.7224 21.2395 38.6648C19.8647 38.5397 18.5772 37.9366 17.601 36.9604C16.6249 35.9842 16.0218 34.6968 15.8966 33.3219V25.5727ZM72.1301 48.134L72.1033 48.3783C70.4347 74.7776 47.6926 76.114 43.151 76.114C34.7567 76.114 28.549 73.9739 24.1711 69.5715C17.4455 62.8044 16.2362 51.6837 16.0554 41.9018C17.6096 42.8951 19.397 43.4637 21.2395 43.5509C23.6741 43.6582 26.0813 43.0013 28.1239 41.6722C29.6589 42.854 31.5324 43.5125 33.4693 43.5509C34.7865 43.6343 36.1071 43.4501 37.3512 43.0092C38.5953 42.5683 39.7372 41.88 40.708 40.9857C40.9254 40.7536 41.1257 40.5093 41.3138 40.2528C41.8757 42.2414 42.9751 44.037 44.4898 45.4418C38.1015 47.5279 32.373 51.2548 27.8772 56.2497C27.4411 56.7292 27.2134 57.3622 27.2441 58.0096C27.2748 58.657 27.5614 59.2657 28.0409 59.7017C28.5203 60.1378 29.1534 60.3655 29.8008 60.3348C30.4481 60.3041 31.0568 60.0175 31.4929 59.538C34.6129 56.0827 38.411 53.3069 42.6507 51.3835C46.8904 49.4602 51.4807 48.4306 56.1357 48.3588H57.2033V56.1618C57.2033 56.8097 57.4606 57.4311 57.9188 57.8893C58.377 58.3474 58.9983 58.6048 59.6463 58.6048C60.2942 58.6048 60.9156 58.3474 61.3738 57.8893C61.8319 57.4311 62.0893 56.8097 62.0893 56.1618V47.9288C62.0851 46.8216 61.7004 45.7494 60.9997 44.8921C60.7351 44.3941 60.3022 44.0062 59.7782 43.7976C59.0068 43.3074 58.1123 43.0457 57.1984 43.0427H50.6315C49.35 42.908 48.1594 42.3173 47.2769 41.3783C46.3944 40.4393 45.8787 39.2145 45.8236 37.927C45.8236 35.6062 45.8236 31.2869 58.9915 31.2869C60.8383 31.1219 62.6994 31.3323 64.4628 31.9054C66.2261 32.4785 67.8553 33.4024 69.2522 34.6216C69.9436 35.3643 70.5055 36.2169 70.9184 37.1428C71.0039 37.3236 71.1041 37.4971 71.1773 37.6852C71.2946 37.9735 71.3777 38.2764 71.473 38.5744C71.6513 39.1363 71.793 39.7056 71.9029 40.2846L71.9738 40.6388C72.0397 41.0321 72.0862 41.4255 72.1277 41.8188C72.1277 41.936 72.1546 42.0631 72.1668 42.1755C72.201 42.559 72.223 42.9401 72.2401 43.3139L72.2547 43.6975C72.2547 44.0493 72.2694 44.3962 72.2694 44.7333V45.2659C72.2694 45.5273 72.2694 45.7887 72.2547 46.0354C72.2547 46.4337 72.2278 46.8245 72.2132 47.1788V47.2814C72.209 47.5674 72.1812 47.8526 72.1301 48.134Z" fill="black"/>
</svg>
