<svg width="126" height="140" viewBox="0 0 126 140" fill="none" xmlns="http://www.w3.org/2000/svg">
<path d="M125.852 71.48V70.0601C125.852 69.3895 125.852 68.7142 125.815 68.002C125.815 67.6551 125.783 67.299 125.764 66.9429C125.638 64.2489 125.282 61.5706 124.701 58.937C124.599 58.4745 124.506 58.012 124.386 57.5495C124.21 56.8835 123.993 56.2267 123.776 55.5654C123.558 54.904 123.313 54.2611 123.068 53.609C122.843 53.0466 122.601 52.4913 122.342 51.944C122.217 51.6804 122.129 51.4075 121.995 51.1485V47.7537C121.958 44.5162 121.995 35.6917 121.995 28.6063V21.16C121.862 15.9029 119.688 10.9039 115.934 7.22136C112.18 3.5388 107.14 1.4617 101.881 1.42975C98.5486 1.27373 95.2274 1.91925 92.1961 3.31213H92.1591C91.6806 3.54995 91.2172 3.81717 90.7716 4.11225C90.545 4.26488 90.3091 4.44525 90.1103 4.61175C89.2531 5.26146 88.4767 6.01142 87.7978 6.84563C87.7191 6.94275 87.6359 7.0075 87.5619 7.10463C87.3769 6.92425 87.1364 6.77625 86.9468 6.60513C86.3247 6.03407 85.67 5.49974 84.9858 5.00488C84.625 4.7505 84.2411 4.51463 83.8619 4.27875C83.1604 3.84041 82.4329 3.44502 81.6835 3.09475C81.2482 2.88314 80.8055 2.68722 80.3561 2.50738C79.4866 2.18363 78.5986 1.90613 77.6968 1.68413C77.2343 1.57313 76.8319 1.43438 76.3694 1.35113C74.8919 1.05569 73.3898 0.900828 71.8831 0.888626C70.8194 0.948751 69.7603 1.09213 68.7196 1.3095C68.3265 1.3835 67.938 1.48988 67.5449 1.59163C66.181 1.95429 64.8576 2.45483 63.5951 3.0855C62.5995 3.57287 61.6478 4.14542 60.7508 4.79675C60.0678 5.30569 59.4189 5.85879 58.8083 6.4525C58.5863 6.66525 58.3458 6.83638 58.133 7.063C57.391 7.85102 56.715 8.69871 56.1119 9.5975C56.0148 9.53738 55.8899 9.49113 55.7881 9.431C55.3256 9.14888 54.7845 8.8945 54.248 8.6355C53.9058 8.47363 53.5774 8.3025 53.212 8.173C52.6079 7.92416 51.9903 7.70953 51.362 7.53013C50.9781 7.40988 50.6174 7.27113 50.215 7.16475C49.4935 6.97513 48.7073 6.841 47.9025 6.70225C47.5233 6.64213 47.1764 6.54963 46.7786 6.49875C45.5085 6.3381 44.2294 6.25777 42.9491 6.25825H42.926C41.9573 6.31406 40.9942 6.44238 40.0446 6.64213C39.6469 6.72075 39.2584 6.82713 38.8653 6.92888C38.4721 7.03063 37.9958 7.19713 37.5379 7.35438C36.6862 7.65022 35.8575 8.00887 35.0589 8.42738C34.7007 8.60757 34.349 8.8004 34.0044 9.0055C33.5059 9.30984 33.0228 9.63861 32.5568 9.99063C32.085 10.3468 31.715 10.6936 31.2941 11.0729C30.8733 11.4521 30.531 11.725 30.1795 12.1135C29.4754 12.8767 28.8393 13.7 28.2786 14.574C28.0936 14.5 27.8531 14.5 27.645 14.4306C26.8216 14.1872 25.9846 13.9926 25.1383 13.8479C24.7405 13.7739 24.3566 13.686 23.945 13.6305C22.596 13.447 21.2364 13.3527 19.875 13.3484H19.838C17.2083 13.4446 14.6237 14.0606 12.2333 15.1608C9.84287 16.261 7.69392 17.8235 5.91042 19.7584C4.12692 21.6932 2.74416 23.9621 1.8419 26.434C0.939646 28.9059 0.535753 31.5321 0.653518 34.1609V48.8314C0.658143 49.8165 0.746017 50.797 0.903267 51.7682V52.6933C0.773767 74.9626 0.593393 105.469 18.9916 123.978C28.9816 134.001 43.2775 139.088 61.5 139.088C105.798 139.088 123.66 106.306 125.529 78.14C125.667 77.2613 125.737 76.364 125.741 75.4714L125.829 73.0062C125.843 72.516 125.848 72.0072 125.852 71.48ZM112.736 21.1508V40.9411C106.632 37.4141 99.6787 35.6273 92.6309 35.775C92.5615 32.3109 92.5014 28.2547 92.5014 24.2449C92.4875 22.3486 92.6031 20.4524 92.8529 18.5746L93.0194 17.6774C93.2321 16.3592 93.6345 15.0781 94.208 13.871C94.2913 13.7138 94.3838 13.5796 94.4716 13.4363C95.0155 12.5018 95.8412 11.7636 96.8304 11.3273C97.0478 11.2255 97.2744 11.1423 97.5056 11.0682C97.8439 10.9683 98.1885 10.891 98.537 10.837L98.759 10.8046C99.7904 10.6936 100.831 10.6428 101.872 10.6613C104.677 10.6991 107.363 11.8052 109.381 13.7541C111.4 15.7031 112.599 18.3482 112.736 21.1508ZM33.75 46.5374V29.5868C33.6979 27.1689 34.032 24.7583 34.7398 22.4457V22.3764C34.9941 21.6225 35.3225 20.8918 35.7156 20.198C35.8683 19.939 36.0301 19.6892 36.2105 19.4441C36.5976 18.8618 37.0491 18.325 37.5564 17.8439C37.7876 17.6219 37.9033 17.5479 38.079 17.4091C38.9115 16.757 39.8458 16.2529 40.854 15.9384C41.0483 15.8783 41.2471 15.8135 41.4414 15.7719C41.6356 15.7303 41.8391 15.6794 42.0288 15.647C42.3941 15.5776 42.7641 15.536 43.1341 15.5129C46.5566 15.2863 49.9329 16.3593 52.6015 18.5145C52.0603 21.0208 51.7844 23.5771 51.7783 26.1411V44.8076C51.7921 46.8565 51.9494 48.9054 52.25 50.9358C52.3425 53.0725 51.6488 55.1676 50.3075 56.8326C48.3019 58.4391 45.7467 59.1962 43.1896 58.9416C40.3207 58.4893 37.7373 56.9466 35.9785 54.6354C34.2196 52.3242 33.4213 49.4231 33.75 46.5374ZM61.0791 45.2378V26.1411C61.0331 23.5015 61.3982 20.8707 62.1614 18.3434C62.2863 17.9641 62.4296 17.6311 62.573 17.2889C62.9142 16.3927 63.3581 15.5391 63.8958 14.7451C64.1178 14.426 64.3583 14.1485 64.571 13.871C64.83 13.5473 65.1075 13.2374 65.3989 12.946C65.5191 12.8304 65.6486 12.7471 65.7735 12.6408C66.4349 12.0765 67.1703 11.6001 67.9519 11.2255C68.0906 11.1608 68.234 11.0729 68.3728 11.0174C68.7058 10.8786 69.0295 10.7723 69.3486 10.6705C69.5938 10.6011 69.8389 10.5271 70.0748 10.4716C70.3106 10.4161 70.5373 10.3606 70.7824 10.319C71.2449 10.245 71.7074 10.1849 72.1144 10.1618C73.0856 10.1618 74.0569 10.2543 75.0143 10.4485C76.3 10.7168 77.5303 11.1978 78.6588 11.873C78.9085 12.021 79.1999 12.1413 79.4311 12.2985C81.2719 13.5843 82.7473 15.3279 83.7 17.3629C83.3763 19.6476 83.2236 21.9509 83.2375 24.2541C83.2375 28.3704 83.2976 32.5282 83.367 36.071C72.4474 37.0052 65.1168 40.0254 61.0791 45.2378ZM9.90352 34.1562C9.79227 32.7295 9.96717 31.295 10.4179 29.9368C10.8687 28.5786 11.5863 27.3242 12.5285 26.2471C13.4707 25.17 14.6186 24.292 15.9048 23.6647C17.191 23.0373 18.5896 22.6732 20.0184 22.5938C21.371 22.5858 22.7204 22.7269 24.0421 23.0146C24.126 23.008 24.2103 23.0223 24.2873 23.0562C24.5786 23.1256 24.7775 23.2736 25.0504 23.3615C24.6804 25.415 24.4954 27.5009 24.5 29.5868V46.5374C24.4834 50.3116 25.3698 54.035 27.0854 57.3969C24.9043 58.5181 22.4684 59.0506 20.0184 58.9416C17.4157 58.7047 14.9783 57.5629 13.1303 55.7149C11.2823 53.8668 10.1405 51.4295 9.90352 48.8268V34.1562ZM116.362 76.8681L116.311 77.3306C113.152 127.308 70.0979 129.838 61.5 129.838C45.6085 129.838 33.8564 125.787 25.5684 117.453C12.8358 104.641 10.5464 83.5882 10.2041 65.0697C13.1465 66.9501 16.5304 68.0265 20.0184 68.1916C24.6275 68.3948 29.1846 67.1512 33.0516 64.635C35.9576 66.8724 39.5044 68.1189 43.1711 68.1916C45.6649 68.3496 48.1649 68.0008 50.5201 67.1661C52.8754 66.3315 55.0372 65.0284 56.875 63.3354C57.2866 62.896 57.6659 62.4335 58.022 61.9479C59.0858 65.7126 61.167 69.112 64.0345 71.7714C51.9406 75.7207 41.0957 82.7763 32.5845 92.2324C31.759 93.1401 31.3279 94.3385 31.386 95.5641C31.4441 96.7897 31.9867 97.942 32.8944 98.7675C33.8021 99.593 35.0006 100.024 36.2261 99.966C37.4517 99.9079 38.604 99.3653 39.4295 98.4576C45.3362 91.9162 52.5266 86.6611 60.5529 83.02C68.5792 79.3788 77.2694 77.4296 86.0819 77.2936H88.103V92.0659C88.103 93.2925 88.5903 94.4689 89.4576 95.3363C90.325 96.2036 91.5014 96.6909 92.728 96.6909C93.9547 96.6909 95.131 96.2036 95.9984 95.3363C96.8657 94.4689 97.353 93.2925 97.353 92.0659V76.4796C97.3451 74.3835 96.6168 72.3538 95.2903 70.7308C94.7893 69.7879 93.9698 69.0535 92.9778 68.6588C91.5174 67.7308 89.8241 67.2353 88.0938 67.2296H75.6618C73.2356 66.9746 70.9818 65.8563 69.3111 64.0787C67.6404 62.301 66.6639 59.9822 66.5598 57.5449C66.5598 53.1511 66.5598 44.9741 91.4885 44.9741C94.9848 44.6618 98.5081 45.0601 101.846 46.145C105.185 47.23 108.269 48.9791 110.914 51.2873C112.222 52.6933 113.286 54.3074 114.068 56.0602C114.23 56.4025 114.419 56.7309 114.558 57.087C114.78 57.6328 114.937 58.2062 115.118 58.7705C115.455 59.8342 115.724 60.9119 115.932 62.008L116.066 62.6786C116.191 63.4232 116.279 64.1679 116.357 64.9125C116.357 65.1345 116.408 65.375 116.431 65.5877C116.496 66.3139 116.538 67.0354 116.57 67.743L116.598 68.4691C116.598 69.1351 116.625 69.7919 116.625 70.4301V71.4384C116.625 71.9333 116.625 72.4281 116.598 72.8952C116.598 73.6491 116.547 74.3891 116.519 75.0598V75.254C116.511 75.7955 116.458 76.3353 116.362 76.8681Z" fill="black"/>
</svg>
