<svg width="131" height="124" viewBox="0 0 131 124" fill="none" xmlns="http://www.w3.org/2000/svg">
<path d="M98.8863 49.2197C102.5 45.606 102.5 39.797 102.5 28.1667C102.5 16.5363 102.5 10.7273 98.8863 7.11367M98.8863 49.2197C95.2727 52.8333 89.4637 52.8333 77.8333 52.8333H53.1667C41.5363 52.8333 35.7273 52.8333 32.1137 49.2197M98.8863 7.11367C95.2727 3.5 89.4637 3.5 77.8333 3.5H53.1667C41.5363 3.5 35.7273 3.5 32.1137 7.11367M32.1137 7.11367C28.5 10.7273 28.5 16.5363 28.5 28.1667C28.5 39.797 28.5 45.606 32.1137 49.2197M71.6667 28.1667C71.6667 29.8022 71.017 31.3707 69.8605 32.5272C68.704 33.6836 67.1355 34.3333 65.5 34.3333C63.8645 34.3333 62.296 33.6836 61.1395 32.5272C59.983 31.3707 59.3333 29.8022 59.3333 28.1667C59.3333 26.5312 59.983 24.9627 61.1395 23.8062C62.296 22.6497 63.8645 22 65.5 22C67.1355 22 68.704 22.6497 69.8605 23.8062C71.017 24.9627 71.6667 26.5312 71.6667 28.1667Z" stroke="black" stroke-width="6"/>
<path d="M102.5 22C97.5935 22 92.888 20.0509 89.4186 16.5815C85.9491 13.1121 84 8.40651 84 3.5M102.5 34.3333C97.5935 34.3333 92.888 36.2824 89.4186 39.7519C85.9491 43.2213 84 47.9268 84 52.8333M28.5 22C33.4065 22 38.1121 20.0509 41.5815 16.5815C45.0509 13.1121 47 8.40651 47 3.5M28.5 34.3333C33.4065 34.3333 38.1121 36.2824 41.5815 39.7519C45.0509 43.2213 47 47.9268 47 52.8333M22.3334 110.726H36.27C42.4984 110.726 48.8069 111.38 54.8687 112.625C65.6912 114.849 76.8267 115.095 87.737 113.353C93.0897 112.49 98.3437 111.164 103.104 108.87C107.396 106.792 112.657 103.875 116.19 100.6C119.717 97.332 123.393 91.9855 125.995 87.8045C128.24 84.2155 127.154 79.8187 123.615 77.1485C121.626 75.7017 119.229 74.9223 116.77 74.9223C114.31 74.9223 111.914 75.7017 109.925 77.1485L98.7815 85.566C94.4649 88.8343 89.7474 91.8375 84.1295 92.7317C83.4512 92.8365 82.742 92.9352 82.002 93.0215M82.002 93.0215C81.7761 93.0477 81.55 93.0724 81.3237 93.0955M82.002 93.0215C82.9891 92.7546 83.8941 92.2459 84.6352 91.5415C85.5645 90.7376 86.3233 89.7557 86.8669 88.6538C87.4105 87.5519 87.7278 86.3522 87.8003 85.1256C87.8727 83.899 87.6987 82.6704 87.2885 81.5121C86.8784 80.3539 86.2404 79.2895 85.4122 78.3818C84.6086 77.4897 83.6727 76.7264 82.6372 76.1187C65.389 65.8265 38.5455 73.6643 22.3334 85.1652M82.002 93.0215C81.7792 93.07 81.5518 93.0948 81.3237 93.0955M81.3237 93.0955C77.6047 93.4693 73.858 93.4775 70.1374 93.1202" stroke="black" stroke-width="6" stroke-linecap="round"/>
<path d="M22.3334 80.5833C22.3334 75.4747 18.192 71.3333 13.0834 71.3333C7.97474 71.3333 3.83337 75.4747 3.83337 80.5833V111.417C3.83337 116.525 7.97474 120.667 13.0834 120.667C18.192 120.667 22.3334 116.525 22.3334 111.417V80.5833Z" stroke="black" stroke-width="6"/>
</svg>
