<svg width="89" height="89" viewBox="0 0 89 89" fill="none" xmlns="http://www.w3.org/2000/svg">
<path d="M44.3787 8.24243C24.2197 8.24243 7.87866 24.5835 7.87866 44.7424C7.87866 64.9014 24.2197 81.2424 44.3787 81.2424C64.5376 81.2424 80.8787 64.9014 80.8787 44.7424C80.8787 24.5835 64.5376 8.24243 44.3787 8.24243ZM44.3787 73.9424L51.6787 66.6424L55.3287 62.9924V55.6924H48.0287V52.0424L44.3787 48.3924H33.4287V59.3424L40.7287 66.6424V73.6906C26.3477 71.8838 15.1787 59.6052 15.1787 44.7424L18.8287 48.3924H26.1287V41.0924H33.4287L44.3787 30.1424V22.8424H37.0787L33.4287 19.1924V17.6923C40.4481 14.8299 48.3093 14.8299 55.3287 17.6923V22.8424L51.6787 26.4924V33.7924L55.3287 37.4424L66.7532 26.0179C69.5324 29.3428 71.5349 33.2457 72.6151 37.4424H66.2787L58.9787 44.7424V52.0424L62.6287 55.6924H69.9287L70.9726 56.7363C66.3845 66.8651 56.201 73.9424 44.3787 73.9424Z" fill="black"/>
</svg>
