<svg width="125" height="124" viewBox="0 0 125 124" fill="none" xmlns="http://www.w3.org/2000/svg">
<path d="M62.5 0.333328C28.4415 0.333328 0.833313 27.9415 0.833313 62C0.833313 96.0585 28.4415 123.667 62.5 123.667C96.5585 123.667 124.167 96.0585 124.167 62C124.167 27.9415 96.5585 0.333328 62.5 0.333328ZM62.5 111.333L74.8333 99L81 92.8333V80.5H68.6666V74.3333L62.5 68.1667H44V86.6667L56.3333 99V110.908C32.0366 107.855 13.1666 87.1107 13.1666 62L19.3333 68.1667H31.6666V55.8333H44L62.5 37.3333V25H50.1666L44 18.8333V16.2988C55.8592 11.4628 69.1407 11.4628 81 16.2988V25L74.8333 31.1667V43.5L81 49.6667L100.302 30.365C104.997 35.9824 108.38 42.5764 110.205 49.6667H99.5L87.1666 62V74.3333L93.3333 80.5H105.667L107.43 82.2637C99.6788 99.3762 82.4738 111.333 62.5 111.333Z" fill="black"/>
</svg>
