<svg width="88" height="89" viewBox="0 0 88 89" fill="none" xmlns="http://www.w3.org/2000/svg">
<path d="M55.6667 41.9C55.6667 44.3063 54.9531 46.6586 53.6162 48.6594C52.2793 50.6602 50.3792 52.2197 48.156 53.1405C45.9328 54.0614 43.4865 54.3023 41.1264 53.8329C38.7663 53.3634 36.5984 52.2047 34.8969 50.5031C33.1953 48.8016 32.0366 46.6337 31.5671 44.2736C31.0977 41.9135 31.3386 39.4672 32.2595 37.244C33.1803 35.0209 34.7398 33.1207 36.7406 31.7838C38.7414 30.4469 41.0937 29.7333 43.5 29.7333C46.7268 29.7333 49.8214 31.0152 52.1031 33.2969C54.3848 35.5786 55.6667 38.6732 55.6667 41.9ZM80 22.4333V61.3667C80 62.012 79.7436 62.631 79.2873 63.0873C78.831 63.5436 78.212 63.8 77.5667 63.8H9.43333C8.78797 63.8 8.16905 63.5436 7.71271 63.0873C7.25637 62.631 7 62.012 7 61.3667V22.4333C7 21.788 7.25637 21.169 7.71271 20.7127C8.16905 20.2564 8.78797 20 9.43333 20H77.5667C78.212 20 78.831 20.2564 79.2873 20.7127C79.7436 21.169 80 21.788 80 22.4333ZM75.1333 36.5315C72.3703 35.7145 69.8556 34.2192 67.8182 32.1818C65.7808 30.1444 64.2855 27.6297 63.4685 24.8667H23.5315C22.7145 27.6297 21.2192 30.1444 19.1818 32.1818C17.1444 34.2192 14.6297 35.7145 11.8667 36.5315V47.2685C14.6297 48.0855 17.1444 49.5808 19.1818 51.6182C21.2192 53.6556 22.7145 56.1703 23.5315 58.9333H63.4685C64.2855 56.1703 65.7808 53.6556 67.8182 51.6182C69.8556 49.5808 72.3703 48.0855 75.1333 47.2685V36.5315Z" fill="black"/>
</svg>
