<svg width="34" height="24" viewBox="0 0 34 24" fill="none" xmlns="http://www.w3.org/2000/svg">
<path d="M13.6666 17.0002L22.3166 12.0002L13.6666 7.00016V17.0002ZM32.9333 3.95016C33.15 4.7335 33.3 5.7835 33.4 7.11683C33.5166 8.45016 33.5666 9.60016 33.5666 10.6002L33.6666 12.0002C33.6666 15.6502 33.4 18.3335 32.9333 20.0502C32.5166 21.5502 31.55 22.5168 30.05 22.9335C29.2666 23.1502 27.8333 23.3002 25.6333 23.4002C23.4666 23.5168 21.4833 23.5668 19.65 23.5668L17 23.6668C10.0166 23.6668 5.66665 23.4002 3.94998 22.9335C2.44998 22.5168 1.48331 21.5502 1.06665 20.0502C0.84998 19.2668 0.69998 18.2168 0.59998 16.8835C0.483313 15.5502 0.433313 14.4002 0.433313 13.4002L0.333313 12.0002C0.333313 8.35016 0.59998 5.66683 1.06665 3.95016C1.48331 2.45016 2.44998 1.4835 3.94998 1.06683C4.73331 0.850163 6.16665 0.700163 8.36665 0.600163C10.5333 0.483496 12.5166 0.433496 14.35 0.433496L17 0.333496C23.9833 0.333496 28.3333 0.600163 30.05 1.06683C31.55 1.4835 32.5166 2.45016 32.9333 3.95016Z" fill="white"/>
</svg>
